<?xml version="1.0" standalone="no"?>
<!DOCTYPE svg PUBLIC "-//W3C//DTD SVG 20010904//EN"
 "http://www.w3.org/TR/2001/REC-SVG-20010904/DTD/svg10.dtd">
<svg version="1.0" xmlns="http://www.w3.org/2000/svg"
 width="2085.000000pt" height="2084.000000pt" viewBox="0 0 2085.000000 2084.000000"
 preserveAspectRatio="xMidYMid meet">

<g transform="translate(0.000000,2084.000000) scale(0.100000,-0.100000)"
fill="#000000" stroke="none">
<path d="M5815 16325 c-5 -2 -41 -6 -78 -10 -50 -5 -73 -12 -87 -28 -16 -17
-20 -18 -20 -5 0 14 -5 15 -47 2 -27 -8 -53 -21 -59 -30 -9 -12 -13 -12 -16
-2 -3 8 -13 0 -25 -20 -18 -29 -21 -31 -28 -15 -4 10 -9 13 -12 7 -2 -7 -12
-10 -21 -8 -23 6 -173 -91 -179 -116 -3 -11 -9 -17 -14 -14 -11 7 -39 -20 -39
-37 0 -7 -3 -9 -7 -6 -9 9 -34 -13 -27 -24 3 -5 -1 -9 -9 -9 -7 0 -25 -12 -39
-27 -43 -45 -128 -175 -128 -195 0 -10 -4 -18 -9 -18 -11 0 -102 -196 -133
-290 -78 -228 -91 -279 -134 -515 -14 -77 -28 -151 -30 -164 -4 -20 -14 -7
-54 75 -27 54 -49 93 -49 87 -2 -26 -21 -12 -21 15 -1 33 -38 117 -39 87 -1
-17 -3 -17 -11 -5 -5 8 -10 25 -10 37 0 26 -57 123 -71 123 -5 0 -14 12 -20
27 -15 41 -111 154 -126 149 -7 -3 -13 1 -13 10 0 17 -25 46 -33 38 -3 -3 -8
4 -12 15 -8 25 -25 28 -25 4 0 -15 -2 -16 -10 -3 -5 8 -10 24 -10 35 0 29
-104 106 -215 161 -113 55 -142 62 -148 37 -4 -16 -6 -16 -12 4 -8 25 -31 37
-41 22 -4 -6 -10 -4 -17 5 -8 10 -46 19 -114 26 -230 27 -477 -39 -668 -175
-145 -104 -246 -250 -132 -190 15 8 25 10 22 5 -4 -6 -2 -10 4 -10 10 0 26 19
26 32 0 3 4 10 9 15 5 5 6 3 2 -4 -8 -14 4 -17 20 -5 5 4 -9 -10 -31 -31 -23
-23 -32 -36 -21 -33 17 6 17 5 5 -10 -13 -16 -12 -16 11 -4 14 7 52 31 85 53
33 23 68 40 78 40 9 -1 15 2 12 7 -3 5 0 12 6 16 8 4 9 3 5 -4 -9 -15 -1 -15
27 -1 27 12 22 8 -87 -75 -44 -34 -75 -65 -72 -72 3 -7 0 -15 -7 -18 -7 -2 -4
-5 6 -5 9 -1 53 17 97 39 44 22 80 38 80 36 0 -2 -24 -22 -53 -43 -32 -25 -53
-49 -54 -62 -2 -25 0 -25 37 -6 17 9 42 20 57 26 l28 10 -29 -24 c-17 -14 -26
-29 -22 -35 4 -7 1 -12 -6 -12 -10 0 -10 -2 1 -9 9 -6 34 0 70 16 102 46 111
47 71 13 -19 -16 -38 -30 -41 -30 -4 0 -6 -12 -6 -26 0 -22 3 -25 25 -19 19 5
23 3 19 -9 -9 -22 2 -20 32 7 14 12 19 14 12 5 -10 -13 -10 -18 -2 -18 7 0 9
-6 5 -12 -4 -7 18 11 49 41 56 55 76 47 22 -9 -26 -27 -47 -86 -21 -60 15 15
26 12 20 -5 -8 -20 20 -20 36 0 7 9 27 26 44 38 l31 22 -18 -29 c-10 -15 -21
-39 -23 -52 -4 -24 -4 -25 21 -8 25 16 25 16 25 -12 l0 -28 37 35 c20 18 32
27 27 19 -12 -17 -25 -60 -18 -60 3 0 21 11 41 25 39 26 55 26 33 0 -7 -8 -9
-15 -5 -15 4 0 2 -8 -5 -17 -7 -10 12 7 41 37 30 30 48 48 41 38 -16 -19 -7
-42 11 -31 7 3 3 -3 -7 -15 -16 -18 -22 -20 -34 -9 -12 9 -12 7 1 -14 10 -14
14 -30 10 -35 -5 -5 5 2 21 16 16 14 25 18 20 10 -4 -8 -10 -23 -11 -34 -3
-16 1 -18 27 -12 19 3 29 2 25 -4 -10 -16 1 -11 16 7 12 14 12 16 0 8 -10 -5
-12 -4 -7 4 4 6 11 9 16 6 5 -3 11 -1 15 5 4 6 11 8 16 4 6 -3 5 -12 -3 -22
-11 -14 -9 -14 8 1 24 20 41 23 27 5 -14 -18 -23 -57 -14 -63 5 -2 23 7 41 20
37 27 45 30 35 15 -11 -17 -14 -50 -6 -50 5 0 26 7 47 16 29 12 35 13 27 2 -5
-7 -10 -21 -10 -30 0 -14 9 -12 58 13 32 16 61 29 63 29 3 0 1 -12 -5 -27 -10
-28 -10 -28 27 7 l37 35 -38 -47 c-38 -46 -58 -101 -28 -77 12 11 17 5 14 -14
-1 -5 3 -6 9 -2 6 3 8 10 5 14 -2 5 5 17 18 27 l22 19 -18 -22 c-13 -14 -15
-23 -7 -28 8 -5 7 -11 -2 -23 -12 -15 -11 -16 4 -3 10 7 15 18 11 25 -3 6 -3
8 2 4 4 -4 17 -2 29 4 29 17 48 19 39 5 -4 -7 -8 -17 -9 -23 -1 -6 -5 -21 -8
-32 -12 -36 15 -35 53 2 20 20 40 36 44 36 4 0 -2 -22 -13 -50 -21 -54 -16
-59 31 -35 29 16 29 16 25 -10 -3 -14 -2 -25 0 -25 3 0 26 14 52 32 l46 31
-29 -37 c-28 -37 -40 -66 -27 -66 4 1 18 7 32 15 32 18 59 20 42 3 -7 -7 -12
-20 -12 -30 0 -10 -2 -18 -5 -18 -2 0 -39 14 -82 31 -42 17 -129 44 -192 61
-100 26 -139 31 -281 35 -188 6 -281 -7 -428 -58 -238 -84 -485 -265 -630
-462 -40 -54 -98 -148 -96 -157 1 -3 -5 -15 -13 -26 -22 -34 -69 -162 -84
-228 -10 -48 -10 -61 0 -64 9 -3 8 -7 -4 -16 -20 -15 -40 -192 -28 -258 l8
-46 61 19 c72 22 79 35 58 106 l-14 48 47 -50 c25 -27 40 -39 33 -26 l-12 24
29 -21 30 -21 -2 27 c-1 15 -7 37 -14 50 -7 13 -11 31 -9 40 3 12 12 5 37 -28
18 -25 36 -51 40 -58 10 -17 41 -4 34 14 -3 8 0 14 6 14 9 0 9 6 0 23 -8 17
-5 16 15 -7 30 -33 33 -28 10 16 -9 16 -11 27 -5 24 14 -9 14 9 1 35 -6 10 -9
19 -6 19 3 0 17 -22 33 -50 35 -62 65 -65 53 -5 -1 5 9 1 21 -10 20 -18 22
-18 16 -2 -7 20 3 22 22 5 11 -11 13 -10 8 5 -4 9 -2 17 3 17 5 0 7 6 4 13 -3
8 2 14 10 14 8 0 12 -6 9 -13 -2 -6 0 -15 6 -19 7 -3 8 0 5 9 -3 9 -2 16 4 16
10 0 -4 47 -27 90 l-14 25 23 -20 23 -20 -17 33 c-25 49 -14 38 34 -32 41 -61
45 -64 58 -45 7 10 10 24 6 31 -5 7 -3 8 5 4 7 -5 10 -13 8 -20 -3 -7 4 -13
14 -13 11 -1 17 2 14 7 -3 5 -1 11 5 15 6 4 -5 35 -26 78 -40 80 -38 79 30
-10 26 -35 49 -63 50 -63 2 0 3 8 2 18 0 9 5 16 12 14 7 -1 -5 25 -28 58 -50
74 -46 78 8 7 36 -48 78 -74 65 -40 -4 9 0 11 12 7 16 -7 16 -5 0 27 l-16 34
20 -25 c27 -32 26 -20 0 33 l-21 42 40 -43 c31 -34 41 -39 46 -27 3 9 -1 31
-10 48 -14 31 -5 22 23 -20 12 -17 12 -17 6 1 -4 13 -3 17 4 13 6 -4 3 21 -8
55 -22 73 -23 78 -8 78 5 0 7 -5 3 -12 -4 -6 -3 -8 3 -5 6 4 22 -11 37 -33 17
-25 31 -37 41 -34 12 5 10 12 -9 42 -32 52 -40 70 -21 47 9 -11 21 -20 28 -20
7 0 12 -9 12 -19 0 -10 8 -20 17 -22 15 -2 16 1 6 19 -10 19 -9 20 4 9 26 -21
29 1 7 59 -14 40 -15 49 -4 35 8 -11 15 -16 15 -10 0 5 11 -8 24 -30 23 -39
23 -39 30 -13 3 14 1 38 -4 53 -15 38 -5 41 16 5 10 -17 22 -31 27 -31 4 0 5
5 2 10 -3 6 -2 10 4 10 18 0 21 37 6 74 -23 53 -14 54 14 1 l24 -45 19 25 c16
20 18 34 13 65 -4 22 -5 40 -2 40 3 0 15 -17 27 -37 20 -34 23 -36 30 -18 4
11 3 30 -1 43 -13 33 -19 97 -10 86 5 -5 23 -31 41 -59 17 -27 29 -42 27 -33
-3 9 1 19 9 22 8 3 14 11 14 18 0 9 -3 9 -11 -2 -8 -12 -9 -10 -4 9 5 17 4 22
-5 16 -9 -6 -11 -4 -5 4 5 9 16 3 36 -21 16 -18 27 -26 24 -18 -3 9 1 24 10
35 14 18 14 18 9 1 -6 -16 -5 -17 15 -6 17 9 26 9 37 -1 12 -10 14 -4 15 37
l1 49 15 -37 c18 -45 33 -49 33 -10 l1 27 13 -24 c13 -23 13 -23 19 15 4 22 7
53 8 69 1 31 2 29 15 -20 l8 -30 6 35 7 35 2 -40 c1 -22 6 -49 11 -60 7 -17 9
-16 10 10 2 30 2 30 10 5 6 -20 8 -16 9 23 1 62 21 53 22 -11 1 -26 3 -39 6
-29 2 9 9 17 14 17 5 0 9 21 10 48 l1 47 15 -57 c8 -32 19 -58 23 -58 5 0 13
19 18 43 l10 42 2 -35 c2 -32 3 -33 9 -10 7 24 8 24 15 -9 6 -25 11 -30 17
-20 5 8 9 25 10 39 1 24 1 24 11 -5 24 -68 43 -68 54 0 3 25 9 47 13 50 4 2
17 -16 29 -40 12 -24 18 -46 14 -48 -4 -2 -51 -19 -104 -36 -122 -40 -346
-151 -458 -226 -408 -275 -669 -670 -711 -1078 -12 -109 -5 -292 10 -283 4 3
5 -11 3 -29 -5 -40 36 -189 73 -268 26 -55 27 -56 50 -41 28 19 38 54 25 89
-16 42 -11 43 14 2 18 -29 25 -34 29 -23 4 9 4 24 1 34 -4 13 -2 12 7 -3 6
-11 13 -21 15 -23 6 -8 57 33 64 52 6 16 -1 33 -26 67 -19 26 -34 50 -34 54 0
4 21 -11 48 -32 65 -55 77 -61 63 -34 -10 18 -9 20 6 14 16 -6 16 -4 -1 15
-23 26 -11 29 18 5 12 -10 5 0 -14 22 -27 30 -30 35 -10 22 58 -39 63 -41 50
-17 -8 15 -8 20 -1 16 19 -12 12 7 -19 54 -16 24 -27 46 -25 48 3 3 30 -17 62
-43 l58 -48 -50 53 -50 54 47 -37 c46 -37 93 -53 69 -23 -10 12 -9 14 7 9 29
-7 35 31 9 63 l-20 27 21 -12 c11 -6 24 -16 27 -21 3 -6 11 -10 17 -10 6 0 5
7 -3 17 -10 11 -10 14 -1 9 24 -15 12 18 -20 53 l-33 34 50 -33 50 -33 -30 33
-30 34 27 -17 c46 -29 44 -19 -7 35 l-50 51 65 -48 c65 -48 65 -48 30 -10 -34
37 -27 39 15 6 19 -15 19 -15 5 4 -8 11 -23 31 -35 44 -18 22 -16 22 20 -4 39
-29 40 -29 17 -3 -17 19 -20 27 -10 30 10 4 8 11 -7 29 -11 13 0 6 23 -16 50
-46 55 -41 10 12 -24 28 -26 32 -8 18 14 -12 34 -27 45 -35 19 -14 19 -14 5 4
-8 11 -14 22 -13 25 1 3 -1 8 -4 11 -4 3 -3 -1 2 -9 6 -10 4 -12 -4 -7 -7 5
-10 11 -6 14 3 3 -12 24 -32 46 l-38 39 46 -36 c66 -53 66 -46 1 19 l-57 57
49 -38 c33 -27 45 -32 38 -18 -6 11 -8 24 -4 28 4 5 1 5 -6 1 -7 -4 -11 -3
-10 1 2 5 -10 22 -27 37 l-30 27 45 -28 c25 -15 60 -40 78 -55 42 -36 48 -35
56 4 5 26 1 37 -21 62 -26 29 -26 29 -2 8 43 -38 42 -24 -2 27 -24 27 -43 59
-44 71 -1 17 6 13 44 -24 79 -78 67 -51 -20 47 -73 81 -75 85 -23 36 32 -30
68 -62 79 -69 18 -13 17 -12 -2 10 -12 14 -22 30 -23 35 -1 6 -4 12 -7 15 -4
3 -3 -1 2 -9 6 -10 4 -12 -4 -7 -7 5 -10 10 -7 13 3 3 0 15 -6 27 -11 21 -11
21 11 2 33 -30 25 -8 -20 53 -41 55 -41 55 -8 24 19 -18 39 -33 44 -33 5 0 25
-15 45 -32 19 -18 4 1 -35 41 l-70 75 54 -45 c30 -24 58 -44 62 -44 4 0 11 -4
16 -9 5 -6 2 -6 -7 -1 -13 8 -13 7 -1 -9 10 -12 17 -14 25 -6 7 7 -1 21 -25
47 -29 33 -30 34 -3 10 47 -42 50 -32 7 21 -48 57 -64 83 -42 65 24 -20 18 21
-8 49 -50 56 -29 47 33 -14 93 -91 117 -87 29 4 l-70 71 70 -58 c68 -58 63
-47 -20 44 -41 46 -28 41 47 -18 l43 -34 -50 54 c-27 29 -38 43 -23 30 33 -29
49 -21 22 11 -10 12 6 2 36 -22 30 -24 47 -35 37 -24 -9 11 -15 23 -12 26 3 3
-2 11 -12 19 -14 12 -16 12 -8 0 5 -10 4 -12 -4 -7 -6 4 -9 11 -6 16 3 5 1 11
-5 15 -5 3 -10 11 -10 17 0 6 10 2 23 -9 36 -33 54 -38 27 -8 l-25 28 39 -26
c43 -28 57 -28 35 0 -13 16 -12 17 4 4 25 -20 34 -5 11 20 -19 22 -19 22 3 10
29 -15 36 -14 29 4 -3 9 0 15 10 15 12 0 12 4 -3 28 -17 26 -17 27 1 12 18
-14 19 -14 6 10 -12 23 -12 24 4 11 14 -12 16 -12 10 4 -6 14 -4 16 6 10 8 -5
1 14 -14 41 l-29 49 38 -35 38 -35 -23 35 -23 35 33 -30 c31 -27 32 -28 17 -5
-9 14 -22 34 -29 45 -10 18 -10 19 5 6 22 -18 22 -3 0 22 -10 11 -13 17 -6 13
7 -3 22 -21 35 -39 15 -21 17 -27 5 -18 -19 15 -24 2 -6 -16 9 -9 15 -8 24 0
11 10 8 19 -13 47 l-25 35 38 -35 c36 -34 40 -26 6 14 -13 16 -13 18 -1 10 8
-5 20 -9 25 -9 6 -1 9 -6 8 -11 -1 -6 5 -11 13 -11 8 0 13 6 10 13 -3 7 0 14
6 16 6 2 2 21 -11 48 -21 44 -21 44 -1 20 l20 -25 -10 30 c-6 16 -16 36 -22
45 -6 8 8 -5 31 -29 23 -24 38 -36 34 -25 -6 17 -5 18 12 4 17 -15 18 -14 1
20 l-17 35 31 -35 c17 -19 31 -28 30 -20 -2 8 -2 23 -1 34 1 15 4 16 16 6 18
-15 35 -5 35 21 0 18 11 25 22 13 4 -3 -21 -67 -54 -142 -285 -650 -510 -1401
-608 -2022 -17 -107 -37 -216 -45 -241 -14 -49 -51 -302 -84 -584 -56 -471
-79 -952 -62 -1327 6 -139 16 -293 21 -343 5 -49 14 -173 20 -275 13 -231 33
-369 71 -519 76 -291 150 -607 146 -623 -3 -9 0 -19 5 -20 6 -2 -16 -84 -50
-188 -69 -213 -122 -421 -153 -600 -27 -158 -37 -468 -20 -605 61 -481 336
-809 776 -926 115 -31 379 -38 530 -15 318 49 611 155 1040 375 238 123 277
145 504 288 392 249 875 607 1270 942 176 149 578 502 691 606 122 112 357
309 735 614 165 134 356 288 424 344 l124 100 320 -7 c1155 -24 2215 -151
3102 -372 351 -88 550 -147 1240 -369 761 -245 1070 -333 1440 -409 191 -39
514 -89 545 -84 15 2 1 17 -60 62 -154 114 -399 387 -641 716 -127 172 -310
430 -315 445 -13 33 451 413 821 672 475 333 1208 746 1782 1004 165 73 169
63 -47 115 -821 198 -1610 305 -2545 345 -301 13 -1164 7 -1435 -10 -620 -39
-1136 -91 -1618 -161 -73 -11 -140 -20 -148 -20 -9 0 62 63 157 139 200 162
138 143 539 166 330 19 595 30 1250 55 1160 44 1471 73 1635 154 223 110 281
310 159 553 l-36 72 -52 5 c-28 3 -487 33 -1021 66 -533 33 -991 64 -1018 68
l-47 7 187 157 c104 86 258 218 343 292 l155 136 238 0 c275 0 260 -8 202 107
-155 310 -604 487 -1435 565 -162 16 -1042 17 -1078 2 -20 -9 87 -58 738 -342
l762 -332 256 0 257 -1 -35 -30 c-19 -16 -187 -147 -372 -289 l-337 -260 -61
0 c-62 0 -62 0 -128 61 -172 158 -451 363 -677 498 -343 204 -632 326 -965
408 -134 33 -153 35 -250 30 -193 -10 -441 -98 -855 -302 -718 -354 -1812
-1039 -3075 -1924 -129 -90 -242 -164 -250 -163 -39 2 -210 71 -254 101 -27
19 -122 107 -211 197 -168 168 -267 245 -369 283 -81 30 -242 52 -432 58 -196
6 -280 -6 -374 -58 -206 -112 -324 -152 -533 -183 -214 -32 -305 -18 -459 71
-103 59 -167 83 -226 83 -46 0 -111 21 -241 75 -38 16 -94 30 -135 34 l-70 6
2 55 c31 697 233 1650 529 2490 75 212 84 230 118 230 29 0 29 0 10 -64 -19
-63 -6 -77 30 -34 l28 33 -7 -35 c-4 -19 -10 -42 -12 -52 -11 -38 15 -24 41
23 15 28 28 49 30 47 2 -2 -3 -30 -11 -63 -27 -116 -15 -113 32 8 40 100 42
92 9 -30 -24 -87 -25 -94 -9 -118 9 -14 19 -25 22 -25 4 0 26 19 49 42 l43 43
-25 -62 c-33 -81 -31 -96 5 -53 32 36 39 32 15 -10 -26 -46 -17 -52 31 -20 25
18 47 30 49 28 3 -2 -13 -26 -35 -52 -34 -41 -52 -86 -35 -86 3 0 32 14 65 30
33 17 60 27 60 24 0 -4 -20 -31 -45 -60 -62 -72 -61 -106 1 -39 26 28 35 34
20 15 -58 -77 -74 -132 -21 -74 l25 29 -25 -49 c-26 -51 -26 -68 0 -46 9 8 15
8 15 2 0 -6 -4 -14 -10 -17 -5 -3 -10 -13 -10 -22 0 -9 19 5 46 34 l45 48 -33
-55 c-51 -83 -53 -88 -16 -50 64 65 83 75 37 20 -62 -74 -70 -92 -23 -49 66
60 80 66 43 19 -53 -66 -57 -80 -13 -40 21 19 31 26 23 15 -34 -43 -32 -49 7
-25 21 13 48 30 58 39 11 9 -13 -23 -52 -70 -90 -108 -98 -148 -14 -69 31 31
79 75 106 100 45 42 44 38 -22 -42 -40 -48 -72 -90 -72 -93 0 -4 -10 -21 -22
-38 -13 -18 -24 -43 -25 -57 -1 -21 16 -6 99 80 107 111 108 110 11 -10 -97
-122 -103 -141 -14 -50 73 75 77 77 29 21 -29 -35 -66 -79 -81 -97 -47 -56
-17 -38 57 34 68 66 65 60 -21 -47 -60 -74 -53 -84 10 -14 28 32 69 76 91 98
32 33 30 29 -14 -28 -28 -38 -50 -71 -47 -73 2 -2 30 26 62 63 32 38 65 75 74
83 17 17 21 23 -48 -75 -42 -59 -30 -50 38 30 l34 40 -28 -50 c-16 -27 -55
-90 -88 -140 -71 -106 -52 -95 40 22 62 80 84 102 63 66 -20 -37 -40 -83 -37
-83 3 0 17 18 32 40 15 22 30 38 33 36 5 -6 -31 -70 -111 -194 -33 -51 -57
-96 -53 -99 3 -4 8 -4 9 -2 2 2 32 39 65 82 34 43 62 76 62 73 0 -3 -23 -48
-51 -101 -71 -133 -59 -149 32 -43 112 130 112 129 17 -15 -32 -49 -58 -93
-58 -98 0 -24 22 -2 70 71 29 44 54 80 56 80 2 0 -17 -42 -43 -92 -57 -111
-61 -121 -34 -88 22 27 28 21 11 -11 -6 -10 -9 -19 -6 -19 8 0 58 91 53 97 -3
2 -12 -8 -21 -24 -8 -15 -15 -24 -16 -19 0 10 39 76 46 76 2 0 1 -8 -2 -17 -4
-12 1 -10 15 7 l21 25 -20 -53 c-11 -30 -27 -67 -36 -84 -8 -16 -14 -34 -12
-40 2 -6 33 34 68 88 35 55 68 104 73 109 12 13 -31 -72 -77 -154 -20 -35 -34
-66 -32 -68 3 -3 21 20 42 51 20 31 38 56 40 56 6 0 -37 -94 -47 -105 -13 -14
-11 -45 4 -45 7 0 35 45 62 100 27 55 50 98 52 96 2 -1 -8 -58 -22 -127 -15
-78 -21 -127 -15 -133 6 -6 15 3 24 25 8 19 35 81 61 139 51 115 50 122 19
-98 -18 -126 -14 -152 20 -139 15 6 118 131 163 198 l24 37 -56 92 c-31 51
-54 94 -52 96 2 2 32 -30 66 -72 71 -86 96 -93 32 -9 -23 30 -37 55 -32 55 5
0 11 -3 13 -7 2 -5 21 -24 42 -43 41 -37 40 -31 -4 35 -40 61 -45 69 -32 61 7
-4 12 -3 12 3 0 5 -5 13 -10 16 -6 4 -8 11 -4 16 4 6 11 6 20 -2 7 -6 12 -15
9 -19 -5 -7 32 -45 44 -45 3 0 5 -4 3 -8 -1 -5 2 -5 9 -2 7 5 3 16 -13 34 -13
14 -32 37 -43 51 l-20 25 25 -20 c14 -11 40 -33 57 -49 52 -47 50 -22 -2 39
-26 30 -44 55 -41 55 4 0 24 -9 46 -20 64 -32 64 -32 57 88 -7 142 -11 150
-83 179 l-59 23 58 -5 c31 -3 57 -1 57 4 0 5 -9 39 -20 75 -20 63 -22 66 -53
67 -18 1 -43 5 -57 9 -21 7 -17 8 21 9 25 1 48 4 52 7 3 3 -6 31 -21 60 -25
51 -28 54 -57 49 l-30 -6 25 15 25 15 -30 1 c-27 1 -28 2 -10 12 11 6 22 12
24 14 6 5 -85 137 -129 187 -30 33 -49 47 -68 47 -24 1 -25 2 -10 14 16 12 15
15 -10 39 -16 16 -40 27 -58 28 -17 1 -22 3 -11 6 28 7 17 22 -73 101 -64 55
-92 72 -115 72 -22 0 -26 3 -15 10 17 11 20 7 -54 59 -33 22 -68 41 -78 41
-11 0 -17 4 -14 8 3 5 -32 30 -78 57 -47 27 -82 54 -80 60 3 6 -13 20 -36 30
-43 20 -72 45 -50 45 10 0 10 3 0 15 -6 8 -10 22 -8 32 3 14 9 9 30 -21 l27
-39 7 29 7 28 20 -44 c18 -42 20 -43 28 -22 4 12 6 30 3 40 -5 19 9 -9 22 -43
7 -19 8 -18 12 5 4 23 5 24 13 5 l8 -20 1 20 c1 16 4 14 14 -10 13 -28 14 -25
10 45 l-4 75 15 -65 c22 -94 25 -95 20 -5 l-5 80 18 -65 c29 -101 33 -102 27
-6 -2 49 -3 87 -1 85 2 -2 14 -41 26 -87 25 -91 47 -123 35 -51 -15 97 -14
112 2 54 l17 -60 11 45 11 45 18 -73 c10 -40 22 -74 26 -77 8 -5 18 56 23 144
2 43 3 41 41 -67 24 -70 44 -112 52 -112 9 0 14 11 14 28 1 26 1 26 26 -13
l25 -40 -6 40 c-4 22 -9 49 -11 60 -2 11 5 0 16 -25 40 -89 41 -89 36 -17 -4
78 1 80 20 5 l14 -53 -4 63 c-2 34 -3 62 -1 62 2 0 15 -34 30 -75 15 -41 29
-75 31 -75 2 0 1 21 -1 48 l-5 47 20 -60 20 -60 -5 65 c-3 36 -8 88 -10 115
-6 62 0 49 42 -90 l33 -110 -4 63 c-2 35 -2 62 0 59 2 -2 15 -39 28 -83 l25
-79 2 85 2 85 11 -80 c11 -76 12 -78 19 -40 4 22 7 74 8 115 l1 75 9 -50 c5
-27 15 -95 23 -150 l15 -100 -4 120 c-4 131 -1 125 19 -40 l14 -110 1 119 c0
66 3 117 6 114 3 -3 14 -63 24 -134 11 -75 20 -112 21 -89 1 22 5 60 9 85 6
40 9 30 26 -100 17 -128 20 -140 27 -100 3 25 7 65 7 89 1 69 11 43 25 -70
l13 -104 3 125 c4 198 12 206 34 35 29 -222 32 -226 29 -40 -2 111 0 163 6
150 5 -11 22 -101 38 -200 l27 -180 7 68 c9 81 19 99 20 36 0 -24 3 -61 7 -82
7 -37 8 -36 26 45 l19 83 8 -40 c4 -22 11 -70 14 -107 5 -55 10 -67 27 -71 20
-6 20 -3 14 76 -19 232 -17 239 16 65 17 -93 34 -168 38 -168 4 0 3 26 -1 58
-4 31 -10 89 -13 127 -4 59 -1 48 22 -64 37 -183 51 -182 46 1 l-4 143 24
-148 c13 -81 26 -151 30 -154 3 -3 4 45 1 108 l-4 114 13 -86 c30 -197 40
-207 52 -56 l7 102 16 -109 c11 -72 21 -111 30 -114 9 -3 11 2 8 14 -3 11 -8
64 -12 119 l-5 100 29 -84 c46 -129 51 -125 22 19 -20 96 -20 127 -1 74 23
-65 94 -243 96 -241 1 1 -13 61 -31 134 -37 149 -50 220 -35 188 5 -11 37 -89
71 -172 34 -84 64 -152 65 -150 1 1 -5 31 -15 67 -23 82 -35 150 -22 130 4 -8
14 -39 21 -69 9 -38 15 -49 22 -40 6 9 7 2 3 -20 -6 -26 -4 -32 6 -26 9 6 11
3 6 -10 -8 -18 12 -85 24 -85 4 0 11 5 14 10 3 6 1 10 -6 10 -7 0 -9 12 -5 38
4 29 4 32 -4 15 -13 -32 -20 -29 -11 5 5 15 8 49 7 74 -2 76 10 45 23 -62 7
-55 17 -100 23 -100 5 0 7 17 4 38 l-5 37 14 -40 15 -40 -6 40 c-7 46 5 41 15
-6 25 -125 52 127 32 308 -6 55 -18 132 -28 171 l-17 71 -69 48 c-71 49 -72
68 -1 38 20 -8 39 -13 41 -11 7 6 -74 158 -108 206 -25 34 -39 43 -121 69
l-93 29 60 2 60 2 -35 13 -35 13 35 1 34 1 -49 45 c-28 25 -76 63 -109 85
l-58 40 -105 0 c-109 0 -131 13 -43 25 28 4 50 10 50 14 0 8 -191 73 -273 92
-40 10 -60 8 -132 -10 -103 -26 -111 -26 -60 -1 37 18 32 19 -27 4 -23 -5 -23
-5 1 14 l24 20 -92 -4 c-77 -2 -90 0 -76 10 13 9 -8 9 -84 -3 -56 -9 -119 -15
-141 -13 -34 4 -40 9 -53 40 -23 58 -7 72 20 17 14 -26 27 -45 29 -42 3 3 -2
19 -11 36 -14 29 -14 33 1 57 l17 25 39 -38 39 -38 -16 44 c-8 24 -13 46 -11
48 2 2 23 -18 46 -44 23 -26 40 -43 37 -37 -13 23 -46 114 -43 114 2 0 18 -23
36 -50 18 -28 34 -49 36 -47 2 2 -5 30 -16 62 -11 32 -19 60 -17 61 2 2 20
-19 41 -46 52 -68 62 -72 32 -11 -15 28 -24 51 -22 51 2 0 23 -23 45 -51 45
-57 48 -57 26 -1 l-15 37 35 -40 36 -40 -31 62 c-37 76 -37 82 -4 46 l25 -28
-24 40 c-52 88 -50 87 42 -28 35 -43 65 -76 68 -74 2 3 -7 28 -21 56 -33 65
-27 66 13 1 43 -69 48 -63 10 13 -38 74 -28 69 17 -11 42 -72 44 -61 4 21 -28
57 -27 59 8 10 12 -17 13 -17 7 2 -5 20 -5 20 10 1 8 -11 15 -25 15 -30 0 -6
-5 -4 -10 4 -15 24 -11 -2 5 -30 9 -15 14 -19 15 -10 0 13 1 13 10 0 17 -26
11 -5 -20 70 -16 40 -30 76 -30 79 1 3 19 -28 41 -69 40 -76 45 -78 14 -7 -9
22 -11 36 -6 32 16 -9 14 1 -9 45 -21 40 -28 69 -9 37 6 -9 14 -15 18 -12 5 2
32 -31 61 -75 29 -44 54 -80 56 -80 2 0 -7 25 -21 55 -13 30 -22 55 -20 55 1
0 17 -22 35 -50 18 -27 34 -50 36 -50 4 0 -20 62 -55 144 -12 27 -20 50 -19
52 2 1 32 -38 67 -87 35 -50 65 -88 67 -86 2 2 -3 23 -11 47 -21 61 -19 61 20
2 42 -61 53 -68 26 -14 -10 20 -26 55 -35 77 l-16 40 21 -25 c14 -17 19 -19
15 -7 -10 30 0 19 50 -58 53 -81 74 -97 48 -37 -27 62 -26 69 1 20 14 -27 32
-48 40 -48 19 0 19 -2 -5 48 -30 63 -23 64 10 2 16 -30 29 -49 30 -42 0 7 5
10 10 7 13 -8 14 -11 -20 90 -37 108 -25 101 24 -15 19 -47 35 -76 36 -65 0
17 2 18 11 5 9 -12 10 -12 5 3 -3 10 -6 24 -7 30 0 7 -4 4 -8 -7 -4 -11 -7 1
-7 34 l0 53 22 -64 c25 -72 32 -68 9 6 -20 69 -11 68 14 -2 20 -54 20 -51 6
25 -3 15 4 3 15 -25 12 -29 25 -53 30 -53 5 0 -4 32 -21 72 -32 79 -32 97 0
46 12 -18 32 -46 46 -63 l26 -30 -10 28 c-6 15 -18 42 -26 60 l-16 32 23 -26
c13 -14 33 -39 45 -55 l22 -29 -15 40 c-9 22 -25 58 -36 80 l-19 40 28 -30
c15 -17 45 -50 65 -75 45 -55 59 -46 30 18 l-23 47 25 -27 c14 -16 29 -36 35
-45 20 -36 20 -5 0 46 -11 30 -18 55 -15 58 2 2 16 -18 32 -46 38 -71 42 -56
5 18 -17 34 -29 61 -26 61 2 0 21 -26 41 -57 20 -32 38 -59 39 -61 1 -2 23 7
48 19 l45 22 -47 66 c-71 99 -70 104 7 23 l68 -73 25 21 c13 12 19 19 12 16
-12 -7 -83 49 -83 65 0 17 27 9 50 -16 13 -14 26 -23 28 -20 3 3 11 -3 18 -13
10 -13 15 -14 25 -5 10 10 2 22 -34 60 -66 68 -58 75 13 13 33 -29 60 -47 60
-42 0 6 -4 13 -9 17 -5 3 -24 24 -42 48 l-32 42 53 -50 54 -50 -49 60 c-48 59
-36 55 38 -14 50 -47 47 -26 -4 33 -22 25 -38 46 -35 46 4 0 31 -16 61 -37 89
-58 72 -33 -21 31 -46 32 -84 61 -84 63 0 3 44 -19 99 -48 98 -52 125 -57 137
-24 8 20 -36 71 -101 118 -65 46 -155 80 -271 104 -186 37 -623 14 -808 -43
-12 -4 -16 -2 -12 5 4 6 -38 -5 -93 -24 -306 -107 -570 -277 -893 -577 -105
-97 -121 -108 -133 -87 -4 6 -1 10 6 8 33 -4 42 1 30 15 -9 11 -9 15 0 18 9 3
9 9 1 25 -10 18 -9 20 13 17 14 -1 23 2 19 7 -3 5 -11 6 -17 3 -7 -4 -9 -4 -5
1 4 4 2 15 -5 23 -9 12 -4 11 23 -3 l35 -18 -19 22 c-19 21 -19 21 -1 15 14
-6 16 -4 10 6 -5 9 -4 11 4 6 6 -4 9 -12 6 -17 -4 -5 -1 -9 4 -9 6 0 11 7 11
16 0 11 5 14 17 10 13 -5 10 1 -7 20 l-25 27 32 -17 c48 -24 52 -19 13 15
l-35 31 40 -22 40 -22 -35 37 -35 38 30 -18 c29 -16 29 -16 -5 15 l-35 33 50
-27 50 -27 -40 37 c-28 27 -32 33 -12 21 77 -48 82 -49 42 -12 l-40 37 50 -33
50 -32 -35 38 -35 38 34 -23 c19 -13 31 -19 27 -12 -4 7 -2 12 5 12 8 0 7 5
-2 16 -12 15 -11 16 11 9 22 -7 23 -6 11 9 -12 15 -12 16 5 10 19 -7 19 -7 0
14 -21 24 -16 28 15 12 26 -14 24 -3 -3 21 -23 19 -23 19 14 4 50 -20 58 -19
28 6 -21 17 -22 19 -3 10 38 -19 39 -11 3 20 l-35 31 38 -22 c53 -31 46 -9
-13 36 -68 52 -67 60 2 12 33 -22 45 -23 27 -1 -13 15 -12 15 8 2 13 -8 18
-16 12 -20 -7 -4 -5 -9 5 -12 29 -12 26 12 -6 43 l-33 32 40 -26 c58 -38 84
-32 76 17 -1 5 8 7 20 5 32 -4 36 36 6 57 -21 16 -21 16 18 9 22 -3 42 -7 45
-8 3 0 5 1 6 4 0 3 6 16 14 30 7 14 9 22 6 18 -4 -3 -16 1 -25 10 -10 9 -26
23 -37 29 -16 11 -14 11 10 3 43 -16 106 -29 106 -23 0 3 -8 12 -17 20 -16 13
-16 13 7 7 22 -6 23 -5 11 10 -7 9 -10 16 -5 16 5 1 -7 10 -26 21 -38 22 -27
20 33 -5 50 -22 48 -4 -3 19 -22 10 -38 20 -36 22 2 3 17 -2 33 -10 62 -32 74
-25 13 8 -69 38 -66 40 18 6 29 -12 50 -16 46 -10 -4 8 1 9 16 4 45 -14 10 13
-45 35 -31 12 -54 24 -52 27 3 2 28 -5 56 -17 55 -21 87 -27 61 -10 -13 9 -13
10 0 11 8 0 0 7 -17 15 -18 8 -33 16 -33 19 0 2 15 2 33 -1 l32 -5 -40 20 -40
21 70 -5 c66 -4 68 -4 40 9 -29 14 -30 14 -5 15 40 2 56 17 28 26 -21 6 -21 8
-4 12 15 4 16 7 5 15 -10 6 -3 7 21 3 l35 -6 -35 21 -35 21 35 -6 35 -6 -25
16 -25 15 30 -5 c17 -3 1 4 -34 16 -78 25 -76 32 4 13 75 -17 101 -17 55 1
-37 14 -37 15 -3 19 39 4 37 14 -6 27 -54 16 -46 24 9 9 63 -17 77 3 19 29
-46 21 -41 29 7 11 15 -6 29 -8 32 -6 2 3 -14 13 -37 22 -48 19 -50 28 -3 15
50 -15 37 4 -15 21 l-48 16 60 -3 60 -4 -55 14 -55 14 69 -4 c86 -6 80 2 -15
19 -70 13 -72 14 -29 16 37 2 41 3 20 9 -21 7 -18 9 25 15 69 10 77 14 30 16
l-40 2 30 13 30 14 -35 2 c-32 1 -33 2 -10 9 21 7 18 8 -20 10 l-45 2 45 10
c25 6 59 16 75 24 l30 14 -35 1 c-26 1 -30 3 -15 8 11 4 32 13 48 20 34 18 37
56 5 65 -24 6 -106 7 -123 1z m-68 -231 c-3 -3 -12 -4 -19 -1 -8 3 -5 6 6 6
11 1 17 -2 13 -5z m98 -154 c13 -6 15 -9 5 -9 -8 0 -22 4 -30 9 -18 12 -2 12
25 0z m-2175 -844 c0 -2 -8 -10 -17 -17 -16 -13 -17 -12 -4 4 13 16 21 21 21
13z m2728 -21 c-3 -3 -9 2 -12 12 -6 14 -5 15 5 6 7 -7 10 -15 7 -18z m42 -30
c0 -5 -5 -3 -10 5 -5 8 -10 20 -10 25 0 6 5 3 10 -5 5 -8 10 -19 10 -25z
m-450 -5 c6 -11 8 -20 6 -20 -3 0 -10 9 -16 20 -6 11 -8 20 -6 20 3 0 10 -9
16 -20z m470 -45 c0 -5 -5 -3 -10 5 -5 8 -10 20 -10 25 0 6 5 3 10 -5 5 -8 10
-19 10 -25z m-920 -225 c0 -5 -2 -10 -4 -10 -3 0 -8 5 -11 10 -3 6 -1 10 4 10
6 0 11 -4 11 -10z m-1123 -153 c-12 -23 -16 -25 -32 -13 -18 13 -17 14 11 29
36 19 38 17 21 -16z m78 -57 c-3 -5 -12 -7 -20 -3 -21 7 -19 13 6 13 11 0 18
-4 14 -10z m912 -272 c-3 -8 -6 -5 -6 6 -1 11 2 17 5 13 3 -3 4 -12 1 -19z
m-1887 -288 c6 -11 8 -20 6 -20 -3 0 -10 9 -16 20 -6 11 -8 20 -6 20 3 0 10
-9 16 -20z m830 -21 c15 -28 5 -23 -15 7 -9 15 -12 23 -6 20 6 -4 16 -16 21
-27z m-880 -54 c-1 -11 -27 20 -41 50 -6 11 1 7 15 -10 14 -16 26 -34 26 -40z
m1800 -659 c0 -2 -8 -10 -17 -17 -16 -13 -17 -12 -4 4 13 16 21 21 21 13z
m-66 -81 c-35 -43 -44 -51 -44 -40 0 6 71 85 77 85 2 0 -12 -20 -33 -45z m727
-362 c13 -16 12 -17 -3 -4 -17 13 -22 21 -14 21 2 0 10 -8 17 -17z m5888 -7
c21 -26 213 -510 213 -538 -1 -29 -133 -235 -157 -245 -8 -3 -52 -1 -97 3
l-82 9 -48 75 c-44 71 -58 113 -40 124 4 2 75 10 157 17 l150 13 -165 21
c-142 17 -165 23 -168 38 -3 17 170 457 191 485 13 16 32 15 46 -2z m-729
-698 l0 -293 -44 -2 c-93 -3 -393 -120 -856 -334 -274 -126 -1464 -719 -1945
-970 -461 -240 -525 -268 -525 -237 0 7 -18 42 -40 78 l-39 65 21 15 c18 12
3418 1967 3426 1969 1 1 2 -131 2 -291z m760 -193 c0 -47 -2 -85 -4 -85 -2 0
-33 13 -68 28 l-63 29 3 56 4 57 64 0 64 0 0 -85z m-66 -86 l56 -22 0 -135 c0
-77 -4 -132 -9 -126 -4 5 -23 47 -41 94 -17 47 -43 113 -56 148 -13 34 -20 62
-15 62 5 0 34 -10 65 -21z m501 -798 c-6 -5 -100 -76 -210 -158 l-200 -149
-135 -23 c-74 -12 -315 -59 -535 -103 -220 -45 -411 -81 -425 -81 -14 0 -53
12 -88 27 -82 36 -192 56 -305 57 -109 0 -114 -2 143 82 107 35 247 83 310
106 268 99 666 173 1255 235 161 17 202 19 190 7z m1995 -1251 c113 -10 286
-26 385 -35 99 -8 236 -26 305 -40 69 -13 243 -43 387 -66 l262 -42 -26 -56
c-14 -31 -34 -77 -45 -103 -12 -27 -24 -48 -29 -48 -21 0 -574 92 -659 110
-105 22 -165 28 -585 65 -159 15 -300 28 -313 31 -23 5 -22 6 30 104 31 58 59
100 68 100 8 0 107 -9 220 -20z m-1160 -110 l0 -110 -737 2 -738 3 -3 108 -3
107 741 0 740 0 0 -110z m-2684 -19 c-3 -4 -70 -56 -148 -114 l-143 -105 -345
-36 c-190 -20 -355 -36 -368 -36 -21 0 -22 3 -22 90 0 50 1 90 3 90 1 1 229
27 507 59 278 32 509 59 513 60 5 1 6 -3 3 -8z m368 -66 c4 -27 9 -57 12 -66
4 -14 -12 -18 -110 -29 -63 -7 -120 -10 -126 -8 -6 2 37 42 97 90 68 54 110
82 114 75 4 -7 10 -34 13 -62z m-2174 -352 c9 -51 16 -93 16 -93 -1 0 -212
-27 -471 -60 -258 -33 -476 -60 -483 -60 -10 0 -12 22 -10 92 l3 93 435 62
c239 33 448 60 465 60 29 -2 29 -3 45 -94z m-1560 -304 c6 -50 10 -92 8 -94
-2 -3 -184 -52 -404 -110 -219 -58 -405 -108 -411 -110 -10 -3 -13 21 -13 99
l0 103 383 100 c210 55 391 101 403 102 19 1 22 -7 34 -90z m2260 -99 c-14
-11 -92 -68 -175 -128 -82 -60 -312 -227 -510 -371 -634 -463 -1292 -889
-1768 -1145 -771 -415 -1333 -636 -1780 -702 -133 -19 -316 -16 -368 8 l-36
16 14 97 13 97 -57 86 c-202 307 -369 626 -497 951 -100 253 -97 226 -34 245
95 27 809 203 993 245 1083 244 1998 405 2980 526 491 60 711 78 1095 88 52 2
109 4 125 5 l30 2 -25 -20z"/>
<path d="M5868 16083 c6 -2 18 -2 25 0 6 3 1 5 -13 5 -14 0 -19 -2 -12 -5z"/>
<path d="M5580 15540 c8 -5 20 -10 25 -10 6 0 3 5 -5 10 -8 5 -19 10 -25 10
-5 0 -3 -5 5 -10z"/>
<path d="M2816 15365 c-11 -8 -15 -15 -9 -15 6 0 16 7 23 15 16 19 11 19 -14
0z"/>
<path d="M16872 15341 c-80 -30 -114 -60 -332 -289 -164 -172 -207 -212 -228
-212 -15 0 -102 5 -194 12 -154 11 -166 13 -157 29 14 27 11 54 -9 72 -31 29
-63 20 -113 -29 l-46 -45 -161 12 c-150 11 -160 13 -152 30 15 27 12 47 -10
69 -31 31 -60 25 -112 -27 l-47 -47 -256 19 -256 18 -55 -54 c-30 -29 -54 -56
-54 -60 0 -3 208 -66 463 -139 l463 -133 132 -108 133 -108 -302 -351 c-165
-193 -306 -353 -313 -356 -6 -2 -122 9 -256 25 l-245 29 -37 -36 c-21 -20 -38
-39 -38 -43 0 -3 79 -55 176 -114 138 -85 174 -111 168 -124 -3 -9 -10 -30
-14 -47 -4 -16 -15 -42 -24 -56 -11 -17 -16 -41 -14 -65 3 -37 4 -38 44 -37
25 0 53 9 73 23 17 12 31 20 31 17 0 -4 16 0 35 8 l35 15 23 -37 c13 -20 63
-102 112 -180 l88 -144 40 40 40 40 -30 252 -29 253 145 126 c263 227 543 466
558 474 8 5 16 7 17 5 1 -1 49 -60 105 -130 l103 -128 133 -460 c73 -254 135
-463 137 -465 2 -3 30 21 61 53 l57 57 -20 255 -21 254 46 46 c49 50 58 86 28
115 -11 12 -26 15 -50 12 -40 -7 -38 -12 -52 173 l-10 134 49 52 c53 56 56 64
40 94 -16 30 -45 42 -74 30 -14 -5 -26 -8 -26 -7 0 1 -7 86 -15 187 l-15 185
87 85 c49 47 152 146 229 220 155 148 185 192 205 302 14 78 5 169 -21 200
-16 21 -28 23 -117 26 -77 2 -109 -2 -151 -17z"/>
<path d="M3314 15178 l-19 -23 23 19 c21 18 27 26 19 26 -2 0 -12 -10 -23 -22z"/>
<path d="M6060 15071 c0 -6 4 -13 10 -16 6 -3 7 1 4 9 -7 18 -14 21 -14 7z"/>
<path d="M6290 15063 c0 -5 10 -19 21 -33 l20 -25 -16 33 c-15 30 -25 41 -25
25z"/>
<path d="M3596 15051 c-4 -5 -2 -12 3 -15 5 -4 12 -2 15 3 4 5 2 12 -3 15 -5
4 -12 2 -15 -3z"/>
<path d="M5586 14864 c-3 -8 -1 -24 4 -35 14 -26 21 -24 11 4 -4 12 -6 28 -4
35 7 18 -4 15 -11 -4z"/>
<path d="M4099 14814 c-7 -9 -14 -23 -15 -31 -2 -12 0 -12 15 1 10 9 18 23 18
31 0 19 -1 19 -18 -1z"/>
<path d="M10120 14101 c-41 -11 -97 -29 -125 -41 -69 -30 -385 -222 -556 -338
l-144 -98 -3 -718 c-2 -681 -1 -718 15 -712 10 4 348 187 751 408 l732 400 0
513 0 513 -57 21 c-127 46 -223 63 -383 67 -129 3 -168 0 -230 -15z"/>
<path d="M2880 13611 c0 -6 4 -13 10 -16 6 -3 7 1 4 9 -7 18 -14 21 -14 7z"/>
<path d="M6632 13560 c0 -19 2 -27 5 -17 2 9 2 25 0 35 -3 9 -5 1 -5 -18z"/>
<path d="M4025 13540 c21 -24 26 -25 19 -6 -3 8 -13 17 -22 21 -13 5 -13 2 3
-15z"/>
<path d="M6741 13544 c0 -11 3 -14 6 -6 3 7 2 16 -1 19 -3 4 -6 -2 -5 -13z"/>
<path d="M3975 13430 c21 -22 41 -37 44 -35 6 7 -60 75 -73 75 -6 0 7 -18 29
-40z"/>
<path d="M3879 13166 c25 -25 47 -43 50 -41 6 7 -49 64 -74 77 -11 6 0 -10 24
-36z"/>
<path d="M5299 13033 c-13 -16 -12 -17 4 -4 9 7 17 15 17 17 0 8 -8 3 -21 -13z"/>
<path d="M8780 13003 c-47 -8 -153 -44 -204 -70 -215 -109 -459 -371 -622
-669 l-44 -81 0 -453 c0 -391 2 -451 15 -447 7 3 241 151 520 328 l505 322 0
539 0 538 -72 -1 c-40 -1 -84 -4 -98 -6z"/>
<path d="M5910 12795 c13 -14 26 -25 28 -25 3 0 -5 11 -18 25 -13 14 -26 25
-28 25 -3 0 5 -11 18 -25z"/>
<path d="M5940 12756 c0 -2 8 -10 18 -17 15 -13 16 -12 3 4 -13 16 -21 21 -21
13z"/>
</g>
</svg>
